<?xml version="1.0" encoding="UTF-8"?>
<!DOCTYPE svg PUBLIC "-//W3C//DTD SVG 1.1//EN" "http://www.w3.org/Graphics/SVG/1.1/DTD/svg11.dtd">
<svg xmlns="http://www.w3.org/2000/svg" version="1.1" width="512px" height="512px" style="shape-rendering:geometricPrecision; text-rendering:geometricPrecision; image-rendering:optimizeQuality; fill-rule:evenodd; clip-rule:evenodd" xmlns:xlink="http://www.w3.org/1999/xlink">
<g><path style="opacity:0.986" fill="#000100" d="M 376.5,-0.5 C 383.833,-0.5 391.167,-0.5 398.5,-0.5C 420.048,4.84528 437.548,16.5119 451,34.5C 464.617,51.3988 474.283,70.3988 480,91.5C 485.481,115.908 480.148,137.575 464,156.5C 448.516,171.662 430.349,182.328 409.5,188.5C 409.5,190.833 409.5,193.167 409.5,195.5C 416.508,195.334 423.508,195.5 430.5,196C 436.587,201.001 436.92,206.334 431.5,212C 423.799,212.743 416.299,213.909 409,215.5C 408.261,229.816 406.428,243.983 403.5,258C 403.905,258.945 404.572,259.612 405.5,260C 411.61,261.527 417.61,263.36 423.5,265.5C 427.958,271.336 427.291,276.503 421.5,281C 418.833,281.667 416.167,281.667 413.5,281C 408.811,279.658 404.145,278.658 399.5,278C 396.667,287.33 393.334,296.497 389.5,305.5C 398.839,305.687 405.339,310.02 409,318.5C 409.667,333.167 409.667,347.833 409,362.5C 406.135,370.869 400.302,375.202 391.5,375.5C 386.75,413.834 381.917,452.167 377,490.5C 374.859,501.136 368.692,508.136 358.5,511.5C 272.833,511.5 187.167,511.5 101.5,511.5C 92.1841,508.349 86.0174,502.016 83,492.5C 77.9195,453.523 73.0861,414.523 68.5,375.5C 60.0672,375.226 54.2339,371.226 51,363.5C 50.3333,348.5 50.3333,333.5 51,318.5C 54.2469,309.45 60.7469,305.284 70.5,306C 66.4794,297.107 63.1461,287.94 60.5,278.5C 60,278.167 59.5,277.833 59,277.5C 52.3272,279.88 45.4939,281.047 38.5,281C 33.8451,278.103 32.3451,273.937 34,268.5C 34.8333,267.5 35.6667,266.5 36.5,265.5C 43.3116,263.467 49.9783,261.134 56.5,258.5C 52.6724,240.718 50.6724,222.718 50.5,204.5C 43.4921,204.666 36.4921,204.5 29.5,204C 23.3349,199.015 23.0015,193.682 28.5,188C 35.7458,186.609 43.0791,186.109 50.5,186.5C 50.7101,168.028 53.7101,150.028 59.5,132.5C 54.3086,130.267 49.1419,127.934 44,125.5C 39.5676,117.117 41.9009,111.784 51,109.5C 55.8432,111.059 60.6765,112.726 65.5,114.5C 71.0441,104.783 77.2107,95.4495 84,86.5C 91.5667,78.2632 99.7334,70.7632 108.5,64C 103.404,59.5972 101.238,54.0972 102,47.5C 105.04,41.6318 109.54,40.1318 115.5,43C 118.691,46.69 121.691,50.5233 124.5,54.5C 150.134,42.4048 177.134,35.5715 205.5,34C 239.942,30.9944 273.776,34.1611 307,43.5C 321.491,27.6628 338.324,14.8294 357.5,5C 363.828,2.6729 370.162,0.839566 376.5,-0.5 Z"/></g>
<g><path style="opacity:1" fill="#008700" d="M 379.5,17.5 C 385.762,16.872 391.762,17.7054 397.5,20C 403.67,25.0039 409.337,30.5039 414.5,36.5C 393.07,42.7145 373.737,52.8811 356.5,67C 354.064,67.4363 352.064,66.603 350.5,64.5C 353.924,60.3192 356.257,55.6525 357.5,50.5C 356.366,43.7537 352.366,41.2537 345.5,43C 341.946,47.0468 338.613,51.2135 335.5,55.5C 332.618,53.8921 329.618,52.5587 326.5,51.5C 325.479,50.9984 325.312,50.3317 326,49.5C 338.679,36.1485 353.512,25.9818 370.5,19C 373.432,18.0467 376.432,17.5467 379.5,17.5 Z"/></g>
<g><path style="opacity:1" fill="#007000" d="M 379.5,17.5 C 397.265,15.4233 412.598,20.7566 425.5,33.5C 421.957,34.969 418.291,35.969 414.5,36.5C 409.337,30.5039 403.67,25.0039 397.5,20C 391.762,17.7054 385.762,16.872 379.5,17.5 Z"/></g>
<g><path style="opacity:1" fill="#5ea616" d="M 424.5,51.5 C 425.496,51.4142 426.329,51.7476 427,52.5C 432.512,59.7876 433.845,67.7876 431,76.5C 422.441,93.5581 409.941,106.891 393.5,116.5C 392.18,113.86 390.847,111.193 389.5,108.5C 396.236,105.718 402.402,102.052 408,97.5C 410.112,90.3818 407.612,86.0485 400.5,84.5C 393.945,87.3604 387.445,90.3604 381,93.5C 376.622,89.1221 372.456,84.4554 368.5,79.5C 384.969,65.9324 403.635,56.599 424.5,51.5 Z"/></g>
<g><path style="opacity:1" fill="#529013" d="M 424.5,51.5 C 438.213,48.6967 446.546,54.1967 449.5,68C 448.744,74.6073 446.244,80.4407 442,85.5C 428.661,100.155 413.327,112.155 396,121.5C 395.153,119.807 394.32,118.14 393.5,116.5C 409.941,106.891 422.441,93.5581 431,76.5C 433.845,67.7876 432.512,59.7876 427,52.5C 426.329,51.7476 425.496,51.4142 424.5,51.5 Z"/></g>
<g><path style="opacity:1" fill="#a2c100" d="M 229.5,51.5 C 235.368,55.2121 239.868,60.2121 243,66.5C 252.738,87.4506 258.738,109.451 261,132.5C 266.41,176.328 265.41,219.995 258,263.5C 254.927,278.302 250.094,292.469 243.5,306C 234.255,306.817 225.089,306.65 216,305.5C 206.754,286.184 201.087,265.851 199,244.5C 193.175,196.895 194.842,149.561 204,102.5C 207.177,87.9657 212.51,74.299 220,61.5C 222.696,57.6393 225.863,54.306 229.5,51.5 Z"/></g>
<g><path style="opacity:1" fill="#5ea716" d="M 202.5,55.5 C 203.043,55.56 203.376,55.8933 203.5,56.5C 194.633,72.1022 188.966,88.7689 186.5,106.5C 182.43,105.644 178.43,104.477 174.5,103C 162.506,101.675 159.172,106.342 164.5,117C 170.049,119.461 175.716,121.628 181.5,123.5C 181.833,125.333 182.167,127.167 182.5,129C 180.465,145.432 179.465,161.932 179.5,178.5C 172.825,178.334 166.158,178.5 159.5,179C 153.457,181.884 151.957,186.384 155,192.5C 155.903,193.701 157.069,194.535 158.5,195C 165.158,195.5 171.825,195.666 178.5,195.5C 178.994,214.24 180.327,232.906 182.5,251.5C 176.686,252.827 171.019,254.66 165.5,257C 159.416,264.08 160.749,269.247 169.5,272.5C 174.219,271.372 178.886,270.038 183.5,268.5C 184.442,268.608 185.275,268.941 186,269.5C 188.601,281.906 192.434,293.906 197.5,305.5C 180.603,306.824 163.769,306.824 147,305.5C 135.313,278.053 128.979,249.387 128,219.5C 124.814,186.023 128.481,153.357 139,121.5C 150.896,90.4396 172.063,68.4396 202.5,55.5 Z"/></g>
<g><path style="opacity:1" fill="#529113" d="M 296.5,306.5 C 309.406,271.399 315.74,235.065 315.5,197.5C 316.599,161.329 308.766,127.329 292,95.5C 284.106,83.1039 274.273,72.4373 262.5,63.5C 261.702,63.9569 261.369,64.6236 261.5,65.5C 259.734,62.8121 258.067,59.9788 256.5,57C 262.834,58.1554 268.834,60.4887 274.5,64C 300.253,80.9678 317.086,104.468 325,134.5C 331.963,162.095 334.296,190.095 332,218.5C 331.172,248.814 324.672,277.814 312.5,305.5C 307.208,306.495 301.875,306.828 296.5,306.5 Z"/></g>
<g><path style="opacity:1" fill="#a1c100" d="M 161.5,58.5 C 162.239,58.369 162.906,58.5357 163.5,59C 143.643,75.8756 129.643,96.7089 121.5,121.5C 116.61,119.93 111.61,119.43 106.5,120C 101.167,125 101.167,130 106.5,135C 109.461,136.265 112.461,137.431 115.5,138.5C 115.833,139.167 116.167,139.833 116.5,140.5C 111.019,166.219 109.185,192.219 111,218.5C 111.77,229.058 112.937,239.558 114.5,250C 114.441,251.436 114.108,252.769 113.5,254C 103.566,255.234 100.399,260.4 104,269.5C 104.903,270.701 106.069,271.535 107.5,272C 111.246,272.256 114.913,271.756 118.5,270.5C 120.43,282.553 123.764,294.219 128.5,305.5C 115.5,306.833 102.5,306.833 89.5,305.5C 68.0807,255.973 62.2473,204.64 72,151.5C 84.0317,103.303 113.865,72.3027 161.5,58.5 Z"/></g>
<g><path style="opacity:1" fill="#a1c100" d="M 303.5,61.5 C 346.908,85.921 370.408,123.254 374,173.5C 374.818,179.349 374.652,185.015 373.5,190.5C 371.784,188.975 369.784,187.975 367.5,187.5C 361.69,186.51 355.69,186.177 349.5,186.5C 349.806,183.615 349.473,180.948 348.5,178.5C 348.314,165.804 346.647,153.304 343.5,141C 343.585,139.893 343.919,138.893 344.5,138C 348.851,137.113 352.685,135.279 356,132.5C 358.587,127.587 357.753,123.42 353.5,120C 348.855,119.183 344.355,119.683 340,121.5C 336.775,116.19 334.108,110.523 332,104.5C 323.191,86.6852 311.024,71.5186 295.5,59C 298.539,58.7357 301.206,59.5691 303.5,61.5 Z"/></g>
<g><path style="opacity:1" fill="#5ea616" d="M 296.5,306.5 C 285.147,306.832 273.814,306.499 262.5,305.5C 271.781,282.712 277.114,259.045 278.5,234.5C 285.819,236.006 293.153,237.173 300.5,238C 307.089,234.133 308.089,229.133 303.5,223C 295.932,220.691 288.266,218.858 280.5,217.5C 280.167,197.489 280.5,177.489 281.5,157.5C 288.451,155.512 295.451,153.679 302.5,152C 308.08,146.514 307.747,141.514 301.5,137C 293.939,136.554 286.606,137.721 279.5,140.5C 276.48,114.755 270.48,89.7552 261.5,65.5C 261.369,64.6236 261.702,63.9569 262.5,63.5C 274.273,72.4373 284.106,83.1039 292,95.5C 308.766,127.329 316.599,161.329 315.5,197.5C 315.74,235.065 309.406,271.399 296.5,306.5 Z"/></g>
<g><path style="opacity:1" fill="#8ea900" d="M 303.5,61.5 C 346.174,74.0079 373.674,101.675 386,144.5C 398.079,200.413 392.579,254.413 369.5,306.5C 364.167,306.5 358.833,306.5 353.5,306.5C 368.246,272.581 374.912,237.248 373.5,200.5C 374.747,197.201 374.747,193.867 373.5,190.5C 374.652,185.015 374.818,179.349 374,173.5C 370.408,123.254 346.908,85.921 303.5,61.5 Z"/></g>
<g><path style="opacity:1" fill="#007600" d="M 407.5,168.5 C 427.807,158.361 440.974,142.361 447,120.5C 447.816,115.316 447.65,110.316 446.5,105.5C 451.875,100.416 456.542,94.7498 460.5,88.5C 469.702,115.196 463.035,137.029 440.5,154C 430.631,160.685 420.131,166.185 409,170.5C 407.97,170.164 407.47,169.497 407.5,168.5 Z"/></g>
<g><path style="opacity:1" fill="#008800" d="M 446.5,105.5 C 447.65,110.316 447.816,115.316 447,120.5C 440.974,142.361 427.807,158.361 407.5,168.5C 405.847,158.074 404.013,147.74 402,137.5C 418.363,128.907 433.196,118.241 446.5,105.5 Z"/></g>
<g><path style="opacity:1" fill="#6d8300" d="M 348.5,178.5 C 349.473,180.948 349.806,183.615 349.5,186.5C 355.69,186.177 361.69,186.51 367.5,187.5C 361.167,187.5 354.833,187.5 348.5,187.5C 348.5,184.5 348.5,181.5 348.5,178.5 Z"/></g>
<g><path style="opacity:1" fill="#a1c100" d="M 373.5,200.5 C 374.912,237.248 368.246,272.581 353.5,306.5C 345.981,306.825 338.648,306.492 331.5,305.5C 335.921,294.151 339.254,282.485 341.5,270.5C 344.598,272.182 347.931,272.682 351.5,272C 354.232,271.602 356.065,270.102 357,267.5C 358.399,258.725 354.566,254.392 345.5,254.5C 347.163,237.875 348.163,221.208 348.5,204.5C 355.175,204.666 361.842,204.5 368.5,204C 370.584,203.303 372.251,202.136 373.5,200.5 Z"/></g>
<g><path style="opacity:1" fill="#1e2300" d="M 331.5,305.5 C 338.648,306.492 345.981,306.825 353.5,306.5C 358.833,306.5 364.167,306.5 369.5,306.5C 356.661,307.825 343.661,307.825 330.5,306.5C 330.624,305.893 330.957,305.56 331.5,305.5 Z"/></g>
<g><path style="opacity:1" fill="#ba6e00" d="M 391.5,323.5 C 391.5,323.833 391.5,324.167 391.5,324.5C 385.833,324.5 380.167,324.5 374.5,324.5C 272.5,324.5 170.5,324.5 68.5,324.5C 68.5,335.5 68.5,346.5 68.5,357.5C 68.1667,357.5 67.8333,357.5 67.5,357.5C 67.5,346.167 67.5,334.833 67.5,323.5C 175.5,323.5 283.5,323.5 391.5,323.5 Z"/></g>
<g><path style="opacity:1" fill="#fe9800" d="M 374.5,324.5 C 374.5,335.5 374.5,346.5 374.5,357.5C 272.5,357.5 170.5,357.5 68.5,357.5C 68.5,346.5 68.5,335.5 68.5,324.5C 170.5,324.5 272.5,324.5 374.5,324.5 Z"/></g>
<g><path style="opacity:1" fill="#f57c00" d="M 374.5,324.5 C 380.167,324.5 385.833,324.5 391.5,324.5C 391.5,335.5 391.5,346.5 391.5,357.5C 385.833,357.5 380.167,357.5 374.5,357.5C 374.5,346.5 374.5,335.5 374.5,324.5 Z"/></g>
<g><path style="opacity:1" fill="#683c00" d="M 391.5,323.5 C 392.495,334.988 392.828,346.655 392.5,358.5C 283.999,358.833 175.665,358.499 67.5,357.5C 67.8333,357.5 68.1667,357.5 68.5,357.5C 170.5,357.5 272.5,357.5 374.5,357.5C 380.167,357.5 385.833,357.5 391.5,357.5C 391.5,346.5 391.5,335.5 391.5,324.5C 391.5,324.167 391.5,323.833 391.5,323.5 Z"/></g>
<g><path style="opacity:1" fill="#862d11" d="M 373.5,375.5 C 367.833,375.5 362.167,375.5 356.5,375.5C 266.16,374.836 176.16,375.503 86.5,377.5C 85.596,376.791 85.2627,375.791 85.5,374.5C 181.668,374.167 277.668,374.501 373.5,375.5 Z"/></g>
<g><path style="opacity:1" fill="#fe5621" d="M 356.5,375.5 C 351.898,415.324 346.564,454.99 340.5,494.5C 262.166,494.667 183.833,494.5 105.5,494C 102.572,492.74 100.739,490.573 100,487.5C 95.1706,450.865 90.6706,414.199 86.5,377.5C 176.16,375.503 266.16,374.836 356.5,375.5 Z"/></g>
<g><path style="opacity:1" fill="#d74215" d="M 356.5,375.5 C 362.167,375.5 367.833,375.5 373.5,375.5C 368.995,413.537 364.162,451.537 359,489.5C 358.167,491.667 356.667,493.167 354.5,494C 349.845,494.499 345.179,494.666 340.5,494.5C 346.564,454.99 351.898,415.324 356.5,375.5 Z"/></g>
</svg>
